<svg width="28.19" height="16" viewBox="0 0 353 200" fill="none" xmlns="http://www.w3.org/2000/svg">
<path d="M160.088 0H98.4498L0.00016278 100L98.4498 200H160.088L61.2159 100L160.088 0Z" fill="url(#paint0_linear_366_29)"/>
<path d="M192.324 0H253.962L352.412 100L253.962 200H192.324L291.196 100L192.324 0Z" fill="url(#paint1_linear_366_29)"/>
<path fill-rule="evenodd" clip-rule="evenodd" d="M252.631 0H192.269L169.164 51.4266C170.259 51.3531 171.364 51.3158 172.478 51.3158C191.743 51.3158 208.4 62.4802 216.332 78.6918L252.631 0ZM184.651 147.373C180.76 148.372 176.681 148.904 172.478 148.904C156.775 148.904 142.804 141.485 133.879 129.962L102.412 200H160.375L184.651 147.373Z" fill="url(#paint2_linear_366_29)"/>
<path d="M210.73 37.8485H241.667V162.152H210.73V149.013C204.664 154.801 198.559 158.991 192.418 161.581C186.352 164.094 179.755 165.351 172.627 165.351C156.628 165.351 142.79 159.143 131.113 146.728C119.435 134.237 113.597 118.737 113.597 100.228C113.597 81.0346 119.246 65.3063 130.544 53.0433C141.842 40.7811 155.566 34.6492 171.717 34.6492C179.148 34.6492 186.124 36.0585 192.645 38.8764C199.167 41.6952 205.194 45.9224 210.73 51.5583V37.8485ZM178.087 63.4407C168.457 63.4407 160.457 66.8678 154.088 73.7227C147.718 80.5011 144.534 89.2224 144.534 99.8858C144.534 110.626 147.756 119.461 154.202 126.391C160.723 133.323 168.722 136.788 178.201 136.788C187.982 136.788 196.096 133.399 202.54 126.62C208.986 119.765 212.209 110.816 212.209 99.7719C212.209 88.9557 208.986 80.1969 202.54 73.4941C196.096 66.7913 187.944 63.4407 178.087 63.4407Z" fill="#00111C"/>
<defs>
<linearGradient id="paint0_linear_366_29" x1="80.044" y1="0" x2="80.044" y2="200" gradientUnits="userSpaceOnUse">
<stop stop-color="#0FCAF0"/>
<stop offset="1" stop-color="#4B84EC"/>
</linearGradient>
<linearGradient id="paint1_linear_366_29" x1="272.368" y1="0" x2="272.368" y2="200" gradientUnits="userSpaceOnUse">
<stop stop-color="#0FCAF0"/>
<stop offset="1" stop-color="#4B84EC"/>
</linearGradient>
<linearGradient id="paint2_linear_366_29" x1="177.522" y1="0" x2="177.522" y2="200" gradientUnits="userSpaceOnUse">
<stop stop-color="#4B84EC"/>
<stop offset="1" stop-color="#0FCAF0" stop-opacity="0"/>
</linearGradient>
</defs>
</svg>
